<svg width="2400" height="1893" viewBox="0 0 2400 1893" fill="none" xmlns="http://www.w3.org/2000/svg">
<path d="M122.36 173.2C98.24 173.2 83.84 156.88 83.84 131.8C83.84 106.72 98.24 90.4 122.36 90.4C146.12 90.4 158.96 102.88 158.96 122.8V123.88H139.76V123.28C139.76 111.76 134.96 107.8 122.24 107.8C108.68 107.8 103.04 112.72 103.04 131.8C103.04 150.88 108.68 155.8 122.24 155.8C134.96 155.8 139.76 151.84 139.76 140.32V139.72H158.96V140.8C158.96 160.72 146.12 173.2 122.36 173.2ZM184.817 173.2C174.137 173.2 165.857 167.56 165.857 156.64C165.857 147.28 172.577 141.52 185.057 139.6L205.697 136.48V134.56C205.697 127.48 201.857 126.16 194.777 126.16C187.457 126.16 184.577 128.2 184.577 134.32V135.64H167.417V134.32C167.417 119.92 178.577 110.44 195.617 110.44C213.377 110.44 222.737 120.16 222.737 136.24V172H206.057V163.84H205.337C202.097 168.28 195.977 173.2 184.817 173.2ZM183.017 155.2C183.017 158.44 185.537 159.52 190.817 159.52C198.137 159.52 205.697 157.6 205.697 148.24L188.417 150.88C184.697 151.48 183.017 152.68 183.017 155.2ZM251.291 172H233.411V111.64H250.091V121.36H250.811C253.811 115.24 259.211 110.44 267.731 110.44C280.331 110.44 285.011 119.8 285.011 131.92V137.44H267.131V134.2C267.131 127.72 265.091 125.68 259.451 125.68C253.931 125.68 251.291 127.6 251.291 134.2V172ZM320.202 173.2C299.442 173.2 289.962 161.08 289.962 142C289.962 122.68 301.482 110.44 320.322 110.44C338.442 110.44 349.122 121.24 349.122 136.96C349.122 140.32 348.642 143.8 348.282 145.84H306.882C307.242 154.24 310.602 157.6 320.442 157.6C327.642 157.6 330.762 156.04 330.762 152.32V151.6H348.522V152.8C348.522 165.64 337.482 173.2 320.202 173.2ZM319.722 125.2C311.082 125.2 307.722 128.56 307.002 134.92H331.842C332.202 128.68 328.122 125.2 319.722 125.2ZM386.53 173.2C365.77 173.2 356.29 161.08 356.29 142C356.29 122.68 367.81 110.44 386.65 110.44C404.77 110.44 415.45 121.24 415.45 136.96C415.45 140.32 414.97 143.8 414.61 145.84H373.21C373.57 154.24 376.93 157.6 386.77 157.6C393.97 157.6 397.09 156.04 397.09 152.32V151.6H414.85V152.8C414.85 165.64 403.81 173.2 386.53 173.2ZM386.05 125.2C377.41 125.2 374.05 128.56 373.33 134.92H398.17C398.53 128.68 394.45 125.2 386.05 125.2ZM441.955 172H424.075V111.64H440.755V121.36H441.475C444.475 115.24 449.875 110.44 458.395 110.44C470.995 110.44 475.675 119.8 475.675 131.92V137.44H457.795V134.2C457.795 127.72 455.755 125.68 450.115 125.68C444.595 125.68 441.955 127.6 441.955 134.2V172Z" fill="#AA5DF9"/>
<path d="M149.36 350H86.48V339.2C86.48 323.6 97.04 317.12 108.2 311.72L122.12 305.12C129.2 301.76 131.72 299.12 131.72 293.84C131.72 288.08 129.08 284.84 118.4 284.84C106.76 284.84 104.36 288.08 104.36 296.72V298.76H86.36V296.84C86.36 281.24 95.96 268.4 119.84 268.4C141.08 268.4 149.6 279.2 149.6 293.72C149.6 307.64 139.76 314.72 129.32 319.4L117.2 324.68C110.6 327.68 105.68 330.2 105.68 334.04L118.64 333.8H149.36V350ZM197.594 351.2C174.434 351.2 161.474 334.88 161.474 309.8C161.474 284.84 174.434 268.4 197.594 268.4C220.634 268.4 233.594 284.84 233.594 309.8C233.594 334.88 220.634 351.2 197.594 351.2ZM197.594 333.8C209.834 333.8 214.394 328.88 214.394 309.8C214.394 290.72 209.834 285.8 197.594 285.8C185.234 285.8 180.674 290.72 180.674 309.8C180.674 328.88 185.234 333.8 197.594 333.8ZM308.969 350H246.089V339.2C246.089 323.6 256.649 317.12 267.809 311.72L281.729 305.12C288.809 301.76 291.329 299.12 291.329 293.84C291.329 288.08 288.689 284.84 278.009 284.84C266.369 284.84 263.969 288.08 263.969 296.72V298.76H245.969V296.84C245.969 281.24 255.569 268.4 279.449 268.4C300.689 268.4 309.209 279.2 309.209 293.72C309.209 307.64 299.369 314.72 288.929 319.4L276.809 324.68C270.209 327.68 265.289 330.2 265.289 334.04L278.249 333.8H308.969V350ZM384.555 350H321.675V339.2C321.675 323.6 332.235 317.12 343.395 311.72L357.315 305.12C364.395 301.76 366.915 299.12 366.915 293.84C366.915 288.08 364.275 284.84 353.595 284.84C341.955 284.84 339.555 288.08 339.555 296.72V298.76H321.555V296.84C321.555 281.24 331.155 268.4 355.035 268.4C376.275 268.4 384.795 279.2 384.795 293.72C384.795 307.64 374.955 314.72 364.515 319.4L352.395 324.68C345.795 327.68 340.875 330.2 340.875 334.04L353.835 333.8H384.555V350ZM461.024 322.28H416.384V306.92H461.024V322.28ZM555.649 350H492.769V339.2C492.769 323.6 503.329 317.12 514.489 311.72L528.409 305.12C535.489 301.76 538.009 299.12 538.009 293.84C538.009 288.08 535.369 284.84 524.689 284.84C513.049 284.84 510.649 288.08 510.649 296.72V298.76H492.649V296.84C492.649 281.24 502.249 268.4 526.129 268.4C547.369 268.4 555.889 279.2 555.889 293.72C555.889 307.64 546.049 314.72 535.609 319.4L523.489 324.68C516.889 327.68 511.969 330.2 511.969 334.04L524.929 333.8H555.649V350ZM603.883 351.2C580.723 351.2 567.763 334.88 567.763 309.8C567.763 284.84 580.723 268.4 603.883 268.4C626.923 268.4 639.883 284.84 639.883 309.8C639.883 334.88 626.923 351.2 603.883 351.2ZM603.883 333.8C616.123 333.8 620.683 328.88 620.683 309.8C620.683 290.72 616.123 285.8 603.883 285.8C591.523 285.8 586.963 290.72 586.963 309.8C586.963 328.88 591.523 333.8 603.883 333.8ZM715.258 350H652.378V339.2C652.378 323.6 662.938 317.12 674.098 311.72L688.018 305.12C695.098 301.76 697.618 299.12 697.618 293.84C697.618 288.08 694.978 284.84 684.298 284.84C672.658 284.84 670.258 288.08 670.258 296.72V298.76H652.258V296.84C652.258 281.24 661.858 268.4 685.738 268.4C706.978 268.4 715.498 279.2 715.498 293.72C715.498 307.64 705.658 314.72 695.218 319.4L683.098 324.68C676.498 327.68 671.578 330.2 671.578 334.04L684.538 333.8H715.258V350ZM759.901 351.2C738.181 351.2 727.381 341.84 727.381 326.96V326H745.261V326.96C745.261 332.84 750.061 334.76 760.741 334.76C772.141 334.76 776.101 331.76 776.101 323.6C776.101 315.2 771.781 312.32 760.501 312.32C752.461 312.32 746.581 314.84 743.941 316.4L727.981 314.24L730.381 269.6H789.421V285.8H746.341L745.021 303.32H745.501C748.621 300.44 755.581 297.08 766.501 297.08C784.261 297.08 793.741 307.04 793.741 323C793.741 339.44 784.261 351.2 759.901 351.2Z" fill="#AA5DF9"/>
<path opacity="0.3" d="M1616.38 1670.67C1616.38 1692.52 1430.17 1710.25 1200.49 1710.25C970.802 1710.25 784.606 1692.52 784.606 1670.67C784.606 1648.8 970.802 1631.1 1200.49 1631.1C1430.18 1631.1 1616.38 1648.81 1616.38 1670.67Z" fill="#333333"/>
<path d="M1355.78 1417.05H1045.2V1570.13H1355.78V1417.05Z" fill="#4D4D4D"/>
<path opacity="0.3" d="M1045.2 1417.05V1454.6H1329.12V1547.27H1045.2V1570.14H1355.79V1417.05H1045.2Z" fill="#4D4D4D"/>
<path d="M1467.98 1670.68H933.011L1007.8 1570.14H1393.18L1467.98 1670.68Z" fill="#333333"/>
<path opacity="0.3" d="M1393.18 1570.14H1387.44C1396.92 1602.57 1379.76 1643.91 1335.9 1643.91H952.927L933.011 1670.68H1467.99L1393.18 1570.14Z" fill="#333333"/>
<path d="M701.833 1434.34C668.839 1434.34 642 1407.5 642 1374.51V812.834C642 779.845 668.839 753 701.833 753H1699.16C1732.15 753 1758.99 779.845 1758.99 812.834V1374.51C1758.99 1407.51 1732.14 1434.34 1699.16 1434.34H701.833Z" fill="#333333"/>
<path opacity="0.5" d="M1699.15 753H1697.14C1698.63 806.087 1692.43 859.469 1678.22 911.112C1639.04 1053.57 1549.36 1152.9 1429.99 1233.94C1370.83 1274.1 1300.74 1299.21 1233.99 1322.65C1205.13 1332.78 1175.57 1340.57 1145.45 1345.99C1042.02 1364.6 935.745 1380.09 830.577 1387.53C767.549 1391.99 704.823 1388.68 642.386 1381.1C645.677 1411 671.072 1434.34 701.845 1434.34H1699.17C1732.16 1434.34 1759 1407.5 1759 1374.51V812.834C1758.99 779.845 1732.15 753 1699.15 753Z" fill="#333333"/>
<path d="M1721.59 1374.51C1721.59 1386.9 1711.55 1396.95 1699.15 1396.95H701.833C689.437 1396.95 679.394 1386.9 679.394 1374.51V812.834C679.394 800.438 689.437 790.4 701.833 790.4H1699.15C1711.55 790.4 1721.59 800.443 1721.59 812.834V1374.51Z" fill="#FFFEFF"/>
<path d="M1200.49 790.4V1396.95" stroke="#E6E6E6" stroke-width="7.47933" stroke-miterlimit="10"/>
<path d="M1721.59 1093.67H679.388" stroke="#E6E6E6" stroke-width="7.47933" stroke-miterlimit="10"/>
<path opacity="0.5" d="M881.601 1396.95H777.639L1383.36 790.4H1487.33L881.601 1396.95Z" fill="white"/>
<path opacity="0.5" d="M967.245 1396.95H917.767L1523.49 790.4H1572.97L967.245 1396.95Z" fill="white"/>
<rect x="876.391" y="1082.39" width="649.986" height="201.73" rx="100.865" fill="#E7C4FD"/>
<rect x="876.391" y="1082.39" width="649.986" height="201.73" rx="100.865" stroke="#AA5DF9" stroke-width="6.78199"/>
<path d="M967.242 1209.26H954.547L974.648 1154.73H992.39L1012.49 1209.26H999.226L994.832 1197.13H971.719L967.242 1209.26ZM978.799 1177.76L975.706 1186.22H990.844L987.751 1177.76L983.763 1165.47H982.95L978.799 1177.76ZM1028.03 1209.26H1015.91V1168.32H1027.22V1174.91H1027.71C1029.74 1170.76 1033.4 1167.51 1039.18 1167.51C1047.73 1167.51 1050.9 1173.85 1050.9 1182.07V1185.82H1038.78V1183.62C1038.78 1179.23 1037.39 1177.84 1033.57 1177.84C1029.82 1177.84 1028.03 1179.14 1028.03 1183.62V1209.26ZM1075.01 1210.07C1061.5 1210.07 1054.26 1201.85 1054.26 1188.91C1054.26 1175.81 1061.99 1167.51 1075.66 1167.51C1086.57 1167.51 1094.54 1174.18 1094.54 1184.27V1185.25H1082.34V1184.6C1082.34 1179.96 1079.73 1178.41 1074.69 1178.41C1068.83 1178.41 1066.3 1181.18 1066.3 1188.83C1066.3 1196.4 1068.83 1199.16 1074.69 1199.16C1079.73 1199.16 1082.34 1197.62 1082.34 1192.98V1192.33H1094.54V1193.3C1094.54 1203.4 1086.32 1210.07 1075.01 1210.07ZM1112.28 1209.26H1100.15V1154.73H1112.28V1174.67H1112.77C1114.96 1170.84 1119.44 1167.51 1125.95 1167.51C1136.53 1167.51 1140.93 1174.59 1140.93 1183.29V1209.26H1128.72V1185.74C1128.72 1180.04 1126.85 1178 1120.66 1178C1114.8 1178 1112.28 1179.96 1112.28 1186.14V1209.26ZM1159.55 1163.68H1147.59L1147.43 1154.73H1159.55V1163.68ZM1159.8 1209.26H1147.59V1168.32H1159.8V1209.26ZM1185.24 1209.42C1174.58 1209.42 1169.45 1205.51 1169.45 1195.83V1178.41H1162.94V1168.32H1169.77L1172.05 1158.8H1181.66V1168.32H1193.21V1178.41H1181.66V1194.44C1181.66 1198.02 1182.88 1198.43 1188.17 1198.43H1193.21V1208.6C1191.26 1209.01 1188.09 1209.42 1185.24 1209.42ZM1216.79 1210.07C1202.71 1210.07 1196.28 1201.85 1196.28 1188.91C1196.28 1175.81 1204.1 1167.51 1216.87 1167.51C1229.16 1167.51 1236.41 1174.83 1236.41 1185.49C1236.41 1187.77 1236.08 1190.13 1235.84 1191.51H1207.76C1208 1197.21 1210.28 1199.49 1216.96 1199.49C1221.84 1199.49 1223.95 1198.43 1223.95 1195.91V1195.42H1236V1196.23C1236 1204.94 1228.51 1210.07 1216.79 1210.07ZM1216.47 1177.52C1210.61 1177.52 1208.33 1179.79 1207.84 1184.11H1224.69C1224.93 1179.88 1222.16 1177.52 1216.47 1177.52ZM1262.02 1210.07C1248.51 1210.07 1241.27 1201.85 1241.27 1188.91C1241.27 1175.81 1249 1167.51 1262.67 1167.51C1273.58 1167.51 1281.55 1174.18 1281.55 1184.27V1185.25H1269.35V1184.6C1269.35 1179.96 1266.74 1178.41 1261.7 1178.41C1255.84 1178.41 1253.31 1181.18 1253.31 1188.83C1253.31 1196.4 1255.84 1199.16 1261.7 1199.16C1266.74 1199.16 1269.35 1197.62 1269.35 1192.98V1192.33H1281.55V1193.3C1281.55 1203.4 1273.33 1210.07 1262.02 1210.07ZM1305.64 1209.42C1294.98 1209.42 1289.86 1205.51 1289.86 1195.83V1178.41H1283.34V1168.32H1290.18L1292.46 1158.8H1302.06V1168.32H1313.62V1178.41H1302.06V1194.44C1302.06 1198.02 1303.28 1198.43 1308.57 1198.43H1313.62V1208.6C1311.67 1209.01 1308.49 1209.42 1305.64 1209.42ZM1334.32 1210.07C1323.58 1210.07 1319.1 1202.99 1319.1 1194.28V1168.32H1331.23V1191.84C1331.23 1197.54 1333.18 1199.57 1339.29 1199.57C1345.15 1199.57 1347.67 1197.7 1347.67 1191.51V1168.32H1359.8V1209.26H1348.48V1202.09H1348.08C1345.8 1206.81 1341.48 1210.07 1334.32 1210.07ZM1379.4 1209.26H1367.27V1168.32H1378.58V1174.91H1379.07C1381.11 1170.76 1384.77 1167.51 1390.55 1167.51C1399.09 1167.51 1402.27 1173.85 1402.27 1182.07V1185.82H1390.14V1183.62C1390.14 1179.23 1388.76 1177.84 1384.93 1177.84C1381.19 1177.84 1379.4 1179.14 1379.4 1183.62V1209.26ZM1426.13 1210.07C1412.05 1210.07 1405.63 1201.85 1405.63 1188.91C1405.63 1175.81 1413.44 1167.51 1426.22 1167.51C1438.5 1167.51 1445.75 1174.83 1445.75 1185.49C1445.75 1187.77 1445.42 1190.13 1445.18 1191.51H1417.1C1417.34 1197.21 1419.62 1199.49 1426.3 1199.49C1431.18 1199.49 1433.3 1198.43 1433.3 1195.91V1195.42H1445.34V1196.23C1445.34 1204.94 1437.85 1210.07 1426.13 1210.07ZM1425.81 1177.52C1419.95 1177.52 1417.67 1179.79 1417.18 1184.11H1434.03C1434.27 1179.88 1431.51 1177.52 1425.81 1177.52Z" fill="#AA5DF9"/>
<rect x="1102" y="833" width="200" height="200" rx="100" fill="#E7C4FD"/>
<path d="M1260.56 975.188H1256.34V903.469C1256.34 902.35 1255.9 901.277 1255.11 900.486C1254.32 899.694 1253.24 899.25 1252.12 899.25H1231.03V886.594C1231.03 885.475 1230.59 884.402 1229.8 883.611C1229 882.819 1227.93 882.375 1226.81 882.375H1176.19C1175.07 882.375 1174 882.819 1173.2 883.611C1172.41 884.402 1171.97 885.475 1171.97 886.594V916.125H1150.88C1149.76 916.125 1148.68 916.569 1147.89 917.361C1147.1 918.152 1146.66 919.225 1146.66 920.344V975.188H1142.44C1141.32 975.188 1140.25 975.632 1139.45 976.423C1138.66 977.214 1138.22 978.287 1138.22 979.406C1138.22 980.525 1138.66 981.598 1139.45 982.389C1140.25 983.181 1141.32 983.625 1142.44 983.625H1260.56C1261.68 983.625 1262.75 983.181 1263.55 982.389C1264.34 981.598 1264.78 980.525 1264.78 979.406C1264.78 978.287 1264.34 977.214 1263.55 976.423C1262.75 975.632 1261.68 975.188 1260.56 975.188ZM1155.09 924.562H1176.19C1177.31 924.562 1178.38 924.118 1179.17 923.327C1179.96 922.536 1180.41 921.463 1180.41 920.344V890.812H1222.59V903.469C1222.59 904.588 1223.04 905.661 1223.83 906.452C1224.62 907.243 1225.69 907.688 1226.81 907.688H1247.91V975.188H1214.16V954.094C1214.16 952.975 1213.71 951.902 1212.92 951.111C1212.13 950.319 1211.06 949.875 1209.94 949.875H1193.06C1191.94 949.875 1190.87 950.319 1190.08 951.111C1189.29 951.902 1188.84 952.975 1188.84 954.094V975.188H1155.09V924.562ZM1205.72 975.188H1197.28V958.312H1205.72V975.188ZM1193.06 903.469C1193.06 902.35 1193.51 901.277 1194.3 900.486C1195.09 899.694 1196.16 899.25 1197.28 899.25H1205.72C1206.84 899.25 1207.91 899.694 1208.7 900.486C1209.49 901.277 1209.94 902.35 1209.94 903.469C1209.94 904.588 1209.49 905.661 1208.7 906.452C1207.91 907.243 1206.84 907.688 1205.72 907.688H1197.28C1196.16 907.688 1195.09 907.243 1194.3 906.452C1193.51 905.661 1193.06 904.588 1193.06 903.469ZM1193.06 920.344C1193.06 919.225 1193.51 918.152 1194.3 917.361C1195.09 916.569 1196.16 916.125 1197.28 916.125H1205.72C1206.84 916.125 1207.91 916.569 1208.7 917.361C1209.49 918.152 1209.94 919.225 1209.94 920.344C1209.94 921.463 1209.49 922.536 1208.7 923.327C1207.91 924.118 1206.84 924.562 1205.72 924.562H1197.28C1196.16 924.562 1195.09 924.118 1194.3 923.327C1193.51 922.536 1193.06 921.463 1193.06 920.344ZM1222.59 920.344C1222.59 919.225 1223.04 918.152 1223.83 917.361C1224.62 916.569 1225.69 916.125 1226.81 916.125H1235.25C1236.37 916.125 1237.44 916.569 1238.23 917.361C1239.02 918.152 1239.47 919.225 1239.47 920.344C1239.47 921.463 1239.02 922.536 1238.23 923.327C1237.44 924.118 1236.37 924.562 1235.25 924.562H1226.81C1225.69 924.562 1224.62 924.118 1223.83 923.327C1223.04 922.536 1222.59 921.463 1222.59 920.344ZM1180.41 937.219C1180.41 938.338 1179.96 939.411 1179.17 940.202C1178.38 940.993 1177.31 941.438 1176.19 941.438H1167.75C1166.63 941.438 1165.56 940.993 1164.77 940.202C1163.98 939.411 1163.53 938.338 1163.53 937.219C1163.53 936.1 1163.98 935.027 1164.77 934.236C1165.56 933.444 1166.63 933 1167.75 933H1176.19C1177.31 933 1178.38 933.444 1179.17 934.236C1179.96 935.027 1180.41 936.1 1180.41 937.219ZM1180.41 954.094C1180.41 955.213 1179.96 956.286 1179.17 957.077C1178.38 957.868 1177.31 958.312 1176.19 958.312H1167.75C1166.63 958.312 1165.56 957.868 1164.77 957.077C1163.98 956.286 1163.53 955.213 1163.53 954.094C1163.53 952.975 1163.98 951.902 1164.77 951.111C1165.56 950.319 1166.63 949.875 1167.75 949.875H1176.19C1177.31 949.875 1178.38 950.319 1179.17 951.111C1179.96 951.902 1180.41 952.975 1180.41 954.094ZM1193.06 937.219C1193.06 936.1 1193.51 935.027 1194.3 934.236C1195.09 933.444 1196.16 933 1197.28 933H1205.72C1206.84 933 1207.91 933.444 1208.7 934.236C1209.49 935.027 1209.94 936.1 1209.94 937.219C1209.94 938.338 1209.49 939.411 1208.7 940.202C1207.91 940.993 1206.84 941.438 1205.72 941.438H1197.28C1196.16 941.438 1195.09 940.993 1194.3 940.202C1193.51 939.411 1193.06 938.338 1193.06 937.219ZM1222.59 937.219C1222.59 936.1 1223.04 935.027 1223.83 934.236C1224.62 933.444 1225.69 933 1226.81 933H1235.25C1236.37 933 1237.44 933.444 1238.23 934.236C1239.02 935.027 1239.47 936.1 1239.47 937.219C1239.47 938.338 1239.02 939.411 1238.23 940.202C1237.44 940.993 1236.37 941.438 1235.25 941.438H1226.81C1225.69 941.438 1224.62 940.993 1223.83 940.202C1223.04 939.411 1222.59 938.338 1222.59 937.219ZM1222.59 954.094C1222.59 952.975 1223.04 951.902 1223.83 951.111C1224.62 950.319 1225.69 949.875 1226.81 949.875H1235.25C1236.37 949.875 1237.44 950.319 1238.23 951.111C1239.02 951.902 1239.47 952.975 1239.47 954.094C1239.47 955.213 1239.02 956.286 1238.23 957.077C1237.44 957.868 1236.37 958.312 1235.25 958.312H1226.81C1225.69 958.312 1224.62 957.868 1223.83 957.077C1223.04 956.286 1222.59 955.213 1222.59 954.094Z" fill="#AA5DF9"/>
<rect x="867.391" y="1050.39" width="665.986" height="301.73" rx="132.249" fill="#E7C4FD"/>
<rect x="867.391" y="1050.39" width="665.986" height="301.73" rx="132.249" stroke="#AA5DF9" stroke-width="6.78199"/>
<path d="M958.242 1177.26H945.547L965.648 1122.73H983.39L1003.49 1177.26H990.226L985.832 1165.13H962.719L958.242 1177.26ZM969.799 1145.76L966.706 1154.22H981.844L978.751 1145.76L974.763 1133.47H973.95L969.799 1145.76ZM1019.03 1177.26H1006.91V1136.32H1018.22V1142.91H1018.71C1020.74 1138.76 1024.4 1135.51 1030.18 1135.51C1038.73 1135.51 1041.9 1141.85 1041.9 1150.07V1153.82H1029.78V1151.62C1029.78 1147.23 1028.39 1145.84 1024.57 1145.84C1020.82 1145.84 1019.03 1147.14 1019.03 1151.62V1177.26ZM1066.01 1178.07C1052.5 1178.07 1045.26 1169.85 1045.26 1156.91C1045.26 1143.81 1052.99 1135.51 1066.66 1135.51C1077.57 1135.51 1085.54 1142.18 1085.54 1152.27V1153.25H1073.34V1152.6C1073.34 1147.96 1070.73 1146.41 1065.69 1146.41C1059.83 1146.41 1057.3 1149.18 1057.3 1156.83C1057.3 1164.4 1059.83 1167.16 1065.69 1167.16C1070.73 1167.16 1073.34 1165.62 1073.34 1160.98V1160.33H1085.54V1161.3C1085.54 1171.4 1077.32 1178.07 1066.01 1178.07ZM1103.28 1177.26H1091.15V1122.73H1103.28V1142.67H1103.77C1105.96 1138.84 1110.44 1135.51 1116.95 1135.51C1127.53 1135.51 1131.93 1142.59 1131.93 1151.29V1177.26H1119.72V1153.74C1119.72 1148.04 1117.85 1146 1111.66 1146C1105.8 1146 1103.28 1147.96 1103.28 1154.14V1177.26ZM1150.55 1131.68H1138.59L1138.43 1122.73H1150.55V1131.68ZM1150.8 1177.26H1138.59V1136.32H1150.8V1177.26ZM1176.24 1177.42C1165.58 1177.42 1160.45 1173.51 1160.45 1163.83V1146.41H1153.94V1136.32H1160.77L1163.05 1126.8H1172.66V1136.32H1184.21V1146.41H1172.66V1162.44C1172.66 1166.02 1173.88 1166.43 1179.17 1166.43H1184.21V1176.6C1182.26 1177.01 1179.09 1177.42 1176.24 1177.42ZM1207.79 1178.07C1193.71 1178.07 1187.28 1169.85 1187.28 1156.91C1187.28 1143.81 1195.1 1135.51 1207.87 1135.51C1220.16 1135.51 1227.41 1142.83 1227.41 1153.49C1227.41 1155.77 1227.08 1158.13 1226.84 1159.51H1198.76C1199 1165.21 1201.28 1167.49 1207.96 1167.49C1212.84 1167.49 1214.95 1166.43 1214.95 1163.91V1163.42H1227V1164.23C1227 1172.94 1219.51 1178.07 1207.79 1178.07ZM1207.47 1145.52C1201.61 1145.52 1199.33 1147.79 1198.84 1152.11H1215.69C1215.93 1147.88 1213.16 1145.52 1207.47 1145.52ZM1253.02 1178.07C1239.51 1178.07 1232.27 1169.85 1232.27 1156.91C1232.27 1143.81 1240 1135.51 1253.67 1135.51C1264.58 1135.51 1272.55 1142.18 1272.55 1152.27V1153.25H1260.35V1152.6C1260.35 1147.96 1257.74 1146.41 1252.7 1146.41C1246.84 1146.41 1244.31 1149.18 1244.31 1156.83C1244.31 1164.4 1246.84 1167.16 1252.7 1167.16C1257.74 1167.16 1260.35 1165.62 1260.35 1160.98V1160.33H1272.55V1161.3C1272.55 1171.4 1264.33 1178.07 1253.02 1178.07ZM1296.64 1177.42C1285.98 1177.42 1280.86 1173.51 1280.86 1163.83V1146.41H1274.34V1136.32H1281.18L1283.46 1126.8H1293.06V1136.32H1304.62V1146.41H1293.06V1162.44C1293.06 1166.02 1294.28 1166.43 1299.57 1166.43H1304.62V1176.6C1302.67 1177.01 1299.49 1177.42 1296.64 1177.42ZM1325.32 1178.07C1314.58 1178.07 1310.1 1170.99 1310.1 1162.28V1136.32H1322.23V1159.84C1322.23 1165.54 1324.18 1167.57 1330.29 1167.57C1336.15 1167.57 1338.67 1165.7 1338.67 1159.51V1136.32H1350.8V1177.26H1339.48V1170.09H1339.08C1336.8 1174.81 1332.48 1178.07 1325.32 1178.07ZM1370.4 1177.26H1358.27V1136.32H1369.58V1142.91H1370.07C1372.11 1138.76 1375.77 1135.51 1381.55 1135.51C1390.09 1135.51 1393.27 1141.85 1393.27 1150.07V1153.82H1381.14V1151.62C1381.14 1147.23 1379.76 1145.84 1375.93 1145.84C1372.19 1145.84 1370.4 1147.14 1370.4 1151.62V1177.26ZM1417.13 1178.07C1403.05 1178.07 1396.63 1169.85 1396.63 1156.91C1396.63 1143.81 1404.44 1135.51 1417.22 1135.51C1429.5 1135.51 1436.75 1142.83 1436.75 1153.49C1436.75 1155.77 1436.42 1158.13 1436.18 1159.51H1408.1C1408.34 1165.21 1410.62 1167.49 1417.3 1167.49C1422.18 1167.49 1424.3 1166.43 1424.3 1163.91V1163.42H1436.34V1164.23C1436.34 1172.94 1428.85 1178.07 1417.13 1178.07ZM1416.81 1145.52C1410.95 1145.52 1408.67 1147.79 1408.18 1152.11H1425.03C1425.27 1147.88 1422.51 1145.52 1416.81 1145.52ZM968.171 1278.07C952.301 1278.07 946.116 1269.93 946.116 1256.34V1254.71H959.056V1256.91C959.056 1263.99 960.114 1266.27 967.764 1266.27C975.333 1266.27 976.391 1263.99 976.391 1256.91V1222.73H989.412V1255.85C989.412 1269.77 983.146 1278.07 968.171 1278.07ZM1015.55 1278.07C1002.37 1278.07 994.554 1269.77 994.554 1256.83C994.554 1243.81 1002.37 1235.51 1015.55 1235.51C1028.65 1235.51 1036.3 1243.81 1036.3 1256.83C1036.3 1269.77 1028.65 1278.07 1015.55 1278.07ZM1015.55 1267.33C1022.14 1267.33 1024.42 1264.72 1024.42 1256.83C1024.42 1248.85 1022.14 1246.25 1015.55 1246.25C1008.88 1246.25 1006.6 1248.85 1006.6 1256.83C1006.6 1264.72 1008.88 1267.33 1015.55 1267.33ZM1056.85 1278.07C1046.11 1278.07 1041.63 1270.99 1041.63 1262.28V1236.32H1053.76V1259.84C1053.76 1265.54 1055.71 1267.57 1061.82 1267.57C1067.68 1267.57 1070.2 1265.7 1070.2 1259.51V1236.32H1082.32V1277.26H1071.01V1270.09H1070.61C1068.33 1274.81 1064.01 1278.07 1056.85 1278.07ZM1101.93 1277.26H1089.8V1236.32H1101.11V1242.91H1101.6C1103.64 1238.76 1107.3 1235.51 1113.08 1235.51C1121.62 1235.51 1124.8 1241.85 1124.8 1250.07V1253.82H1112.67V1251.62C1112.67 1247.23 1111.29 1245.84 1107.46 1245.84C1103.72 1245.84 1101.93 1247.14 1101.93 1251.62V1277.26ZM1141.59 1277.26H1129.46V1236.32H1140.77V1243.48H1141.26C1143.46 1238.84 1147.85 1235.51 1155.01 1235.51C1165.68 1235.51 1170.23 1242.59 1170.23 1251.29V1277.26H1158.03V1253.74C1158.03 1248.04 1156.15 1246 1149.97 1246C1144.11 1246 1141.59 1247.88 1141.59 1254.06V1277.26ZM1188.54 1278.07C1181.29 1278.07 1175.68 1274.24 1175.68 1266.84C1175.68 1260.49 1180.24 1256.58 1188.7 1255.28L1202.7 1253.17V1251.86C1202.7 1247.06 1200.09 1246.17 1195.29 1246.17C1190.33 1246.17 1188.37 1247.55 1188.37 1251.7V1252.6H1176.74V1251.7C1176.74 1241.94 1184.31 1235.51 1195.86 1235.51C1207.91 1235.51 1214.25 1242.1 1214.25 1253V1277.26H1202.94V1271.72H1202.45C1200.26 1274.73 1196.11 1278.07 1188.54 1278.07ZM1187.32 1265.86C1187.32 1268.06 1189.03 1268.79 1192.61 1268.79C1197.57 1268.79 1202.7 1267.49 1202.7 1261.14L1190.98 1262.93C1188.46 1263.34 1187.32 1264.15 1187.32 1265.86ZM1233.62 1277.26H1221.49V1222.73H1233.62V1277.26ZM1252.6 1231.68H1240.64L1240.47 1222.73H1252.6V1231.68ZM1252.84 1277.26H1240.64V1236.32H1252.84V1277.26ZM1277.47 1278.07C1264.61 1278.07 1258.34 1273.27 1258.34 1263.34V1263.1H1269.98V1264.8C1269.98 1267.82 1271.77 1268.47 1277.71 1268.47C1282.68 1268.47 1283.49 1267.73 1283.49 1265.7C1283.49 1263.5 1282.35 1263.01 1276.9 1262.04L1270.71 1260.9C1262.66 1259.43 1258.26 1256.01 1258.26 1248.45C1258.26 1240.88 1264.45 1235.51 1276.09 1235.51C1286.1 1235.51 1293.75 1240.23 1293.75 1249.42V1250.56H1282.11V1249.42C1282.11 1246.74 1280.97 1245.27 1275.76 1245.27C1270.88 1245.27 1269.74 1246.33 1269.74 1248.28C1269.74 1250.24 1270.47 1250.81 1275.35 1251.78L1282.84 1253.33C1291.47 1254.96 1295.05 1258.86 1295.05 1265.54C1295.05 1273.19 1288.78 1278.07 1277.47 1278.07ZM1312.54 1277.26H1300.41V1236.32H1311.73V1243.48H1312.21C1314.41 1238.84 1318.64 1235.51 1325.64 1235.51C1332.64 1235.51 1336.87 1238.68 1338.91 1243.48H1339.32C1341.59 1239.01 1345.66 1235.51 1353.23 1235.51C1363.81 1235.51 1368.12 1242.59 1368.12 1251.29V1277.26H1355.92V1253.74C1355.92 1248.04 1354.21 1246 1348.27 1246C1342.73 1246 1340.37 1247.79 1340.37 1253.74V1277.26H1328.17V1253.74C1328.17 1248.04 1326.37 1246 1320.52 1246C1314.98 1246 1312.54 1247.79 1312.54 1253.57V1277.26Z" fill="#AA5DF9"/>
<rect x="1101" y="833" width="200" height="200" rx="100" fill="#E7C4FD"/>
<path d="M1200.5 917.125H1252.09C1253.15 917.125 1254.16 917.543 1254.9 918.287C1255.64 919.032 1256.06 920.041 1256.06 921.094C1256.06 922.146 1255.64 923.156 1254.9 923.9C1254.16 924.644 1253.15 925.062 1252.09 925.062H1200.5C1199.45 925.062 1198.44 924.644 1197.69 923.9C1196.95 923.156 1196.53 922.146 1196.53 921.094C1196.53 920.041 1196.95 919.032 1197.69 918.287C1198.44 917.543 1199.45 917.125 1200.5 917.125ZM1252.09 933H1200.5C1199.45 933 1198.44 933.418 1197.69 934.162C1196.95 934.907 1196.53 935.916 1196.53 936.969C1196.53 938.021 1196.95 939.031 1197.69 939.775C1198.44 940.519 1199.45 940.938 1200.5 940.938H1252.09C1253.15 940.938 1254.16 940.519 1254.9 939.775C1255.64 939.031 1256.06 938.021 1256.06 936.969C1256.06 935.916 1255.64 934.907 1254.9 934.162C1254.16 933.418 1253.15 933 1252.09 933ZM1252.09 948.875H1176.69C1175.63 948.875 1174.63 949.293 1173.88 950.037C1173.14 950.782 1172.72 951.791 1172.72 952.844C1172.72 953.896 1173.14 954.906 1173.88 955.65C1174.63 956.394 1175.63 956.812 1176.69 956.812H1252.09C1253.15 956.812 1254.16 956.394 1254.9 955.65C1255.64 954.906 1256.06 953.896 1256.06 952.844C1256.06 951.791 1255.64 950.782 1254.9 950.037C1254.16 949.293 1253.15 948.875 1252.09 948.875ZM1252.09 964.75H1176.69C1175.63 964.75 1174.63 965.168 1173.88 965.912C1173.14 966.657 1172.72 967.666 1172.72 968.719C1172.72 969.771 1173.14 970.781 1173.88 971.525C1174.63 972.269 1175.63 972.688 1176.69 972.688H1252.09C1253.15 972.688 1254.16 972.269 1254.9 971.525C1255.64 970.781 1256.06 969.771 1256.06 968.719C1256.06 967.666 1255.64 966.657 1254.9 965.912C1254.16 965.168 1253.15 964.75 1252.09 964.75ZM1184.62 940.938C1185.68 940.938 1186.69 940.519 1187.43 939.775C1188.18 939.031 1188.59 938.021 1188.59 936.969C1188.59 935.916 1188.18 934.907 1187.43 934.162C1186.69 933.418 1185.68 933 1184.62 933H1180.66V901.25H1196.53V905.219C1196.53 906.271 1196.95 907.281 1197.69 908.025C1198.44 908.769 1199.45 909.188 1200.5 909.188C1201.55 909.188 1202.56 908.769 1203.31 908.025C1204.05 907.281 1204.47 906.271 1204.47 905.219V897.281C1204.47 896.229 1204.05 895.219 1203.31 894.475C1202.56 893.731 1201.55 893.312 1200.5 893.312H1152.88C1151.82 893.312 1150.81 893.731 1150.07 894.475C1149.32 895.219 1148.91 896.229 1148.91 897.281V905.219C1148.91 906.271 1149.32 907.281 1150.07 908.025C1150.81 908.769 1151.82 909.188 1152.88 909.188C1153.93 909.188 1154.94 908.769 1155.68 908.025C1156.43 907.281 1156.84 906.271 1156.84 905.219V901.25H1172.72V933H1168.75C1167.7 933 1166.69 933.418 1165.94 934.162C1165.2 934.907 1164.78 935.916 1164.78 936.969C1164.78 938.021 1165.2 939.031 1165.94 939.775C1166.69 940.519 1167.7 940.938 1168.75 940.938H1184.62Z" fill="#AA5DF9"/>
<rect x="826.391" y="1095.39" width="751.986" height="201.73" rx="100.865" fill="#E7C4FD"/>
<rect x="826.391" y="1095.39" width="751.986" height="201.73" rx="100.865" stroke="#AA5DF9" stroke-width="6.78199"/>
<path d="M935.914 1222.26H923.707V1167.73H948.773C960.492 1167.73 968.875 1174.81 968.875 1186.94C968.875 1199.14 960.492 1206.06 948.773 1206.06H935.914V1222.26ZM949.261 1178.72H935.914V1195.16H949.261C954.877 1195.16 956.749 1193.45 956.749 1186.94C956.749 1180.34 954.877 1178.72 949.261 1178.72ZM986.06 1222.26H973.934V1181.32H985.246V1187.91H985.735C987.769 1183.76 991.432 1180.51 997.21 1180.51C1005.76 1180.51 1008.93 1186.85 1008.93 1195.07V1198.82H996.803V1196.62C996.803 1192.23 995.419 1190.84 991.594 1190.84C987.851 1190.84 986.06 1192.14 986.06 1196.62V1222.26ZM1033.28 1223.07C1020.1 1223.07 1012.29 1214.77 1012.29 1201.83C1012.29 1188.81 1020.1 1180.51 1033.28 1180.51C1046.39 1180.51 1054.04 1188.81 1054.04 1201.83C1054.04 1214.77 1046.39 1223.07 1033.28 1223.07ZM1033.28 1212.33C1039.88 1212.33 1042.15 1209.72 1042.15 1201.83C1042.15 1193.85 1039.88 1191.25 1033.28 1191.25C1026.61 1191.25 1024.33 1193.85 1024.33 1201.83C1024.33 1209.72 1026.61 1212.33 1033.28 1212.33ZM1076.36 1223.07C1064.81 1223.07 1058.62 1214.69 1058.62 1201.83C1058.62 1188.89 1065.21 1180.51 1076.36 1180.51C1082.63 1180.51 1086.37 1183.27 1088.25 1186.69H1088.73V1167.73H1100.86V1222.26H1089.55V1216.23H1089.14C1087.02 1220.63 1082.39 1223.07 1076.36 1223.07ZM1070.75 1201.83C1070.75 1209.23 1072.7 1212.65 1079.78 1212.65C1085.56 1212.65 1088.73 1210.62 1088.73 1205.08V1198.49C1088.73 1192.96 1085.56 1190.92 1079.78 1190.92C1072.7 1190.92 1070.75 1194.34 1070.75 1201.83ZM1123.3 1223.07C1112.56 1223.07 1108.08 1215.99 1108.08 1207.28V1181.32H1120.21V1204.84C1120.21 1210.54 1122.16 1212.57 1128.27 1212.57C1134.13 1212.57 1136.65 1210.7 1136.65 1204.51V1181.32H1148.78V1222.26H1137.46V1215.09H1137.06C1134.78 1219.81 1130.47 1223.07 1123.3 1223.07ZM1175.3 1223.07C1161.79 1223.07 1154.55 1214.85 1154.55 1201.91C1154.55 1188.81 1162.28 1180.51 1175.95 1180.51C1186.86 1180.51 1194.83 1187.18 1194.83 1197.27V1198.25H1182.63V1197.6C1182.63 1192.96 1180.02 1191.41 1174.98 1191.41C1169.12 1191.41 1166.59 1194.18 1166.59 1201.83C1166.59 1209.4 1169.12 1212.16 1174.98 1212.16C1180.02 1212.16 1182.63 1210.62 1182.63 1205.98V1205.33H1194.83V1206.3C1194.83 1216.4 1186.61 1223.07 1175.3 1223.07ZM1218.93 1222.42C1208.26 1222.42 1203.14 1218.51 1203.14 1208.83V1191.41H1196.63V1181.32H1203.46L1205.74 1171.8H1215.34V1181.32H1226.9V1191.41H1215.34V1207.44C1215.34 1211.02 1216.57 1211.43 1221.86 1211.43H1226.9V1221.6C1224.95 1222.01 1221.77 1222.42 1218.93 1222.42ZM1269.04 1222.26H1248.21V1167.73H1269.04C1286.54 1167.73 1297.28 1177.9 1297.28 1194.99C1297.28 1212.08 1286.54 1222.26 1269.04 1222.26ZM1268.88 1178.72H1260.42V1211.27H1268.88C1279.95 1211.27 1284.18 1207.93 1284.18 1194.99C1284.18 1182.05 1279.95 1178.72 1268.88 1178.72ZM1322.33 1223.07C1308.25 1223.07 1301.82 1214.85 1301.82 1201.91C1301.82 1188.81 1309.63 1180.51 1322.41 1180.51C1334.7 1180.51 1341.94 1187.83 1341.94 1198.49C1341.94 1200.77 1341.62 1203.13 1341.37 1204.51H1313.29C1313.54 1210.21 1315.82 1212.49 1322.49 1212.49C1327.37 1212.49 1329.49 1211.43 1329.49 1208.91V1208.42H1341.53V1209.23C1341.53 1217.94 1334.05 1223.07 1322.33 1223.07ZM1322 1190.52C1316.14 1190.52 1313.86 1192.79 1313.38 1197.11H1330.22C1330.47 1192.88 1327.7 1190.52 1322 1190.52ZM1366.25 1223.07C1353.4 1223.07 1347.13 1218.27 1347.13 1208.34V1208.1H1358.77V1209.8C1358.77 1212.82 1360.56 1213.47 1366.5 1213.47C1371.46 1213.47 1372.28 1212.73 1372.28 1210.7C1372.28 1208.5 1371.14 1208.01 1365.68 1207.04L1359.5 1205.9C1351.44 1204.43 1347.05 1201.01 1347.05 1193.45C1347.05 1185.88 1353.23 1180.51 1364.87 1180.51C1374.88 1180.51 1382.53 1185.23 1382.53 1194.42V1195.56H1370.89V1194.42C1370.89 1191.74 1369.75 1190.27 1364.55 1190.27C1359.66 1190.27 1358.52 1191.33 1358.52 1193.28C1358.52 1195.24 1359.26 1195.81 1364.14 1196.78L1371.63 1198.33C1380.25 1199.96 1383.83 1203.86 1383.83 1210.54C1383.83 1218.19 1377.57 1223.07 1366.25 1223.07ZM1400.67 1176.68H1388.71L1388.55 1167.73H1400.67V1176.68ZM1400.92 1222.26H1388.71V1181.32H1400.92V1222.26ZM1423.11 1217.94C1411.8 1217.94 1405.77 1210.7 1405.77 1199.31C1405.77 1187.91 1411.96 1180.51 1423.6 1180.51C1429.46 1180.51 1434.1 1182.78 1436.29 1187.26H1436.7V1181.32H1448.01V1217.7C1448.01 1231.05 1440.93 1236.9 1427.75 1236.9C1414.97 1236.9 1407.81 1231.29 1407.81 1220.87H1419.94C1419.94 1225.1 1421.16 1226.16 1428.16 1226.16C1434.58 1226.16 1435.89 1224.7 1435.89 1218.35V1212H1435.4C1433.61 1215.18 1429.29 1217.94 1423.11 1217.94ZM1417.9 1199.31C1417.9 1205.08 1419.94 1207.77 1426.85 1207.77C1432.71 1207.77 1435.89 1205.73 1435.89 1200.53V1198.08C1435.89 1192.88 1432.79 1190.84 1426.93 1190.84C1419.94 1190.84 1417.9 1193.53 1417.9 1199.31ZM1467.61 1222.26H1455.48V1181.32H1466.79V1188.48H1467.28C1469.48 1183.84 1473.87 1180.51 1481.04 1180.51C1491.7 1180.51 1496.26 1187.59 1496.26 1196.29V1222.26H1484.05V1198.74C1484.05 1193.04 1482.18 1191 1475.99 1191C1470.13 1191 1467.61 1192.88 1467.61 1199.06V1222.26Z" fill="#AA5DF9"/>
<rect x="1103" y="831" width="200" height="200" rx="100" fill="#E7C4FD"/>
<path d="M1234.41 897.998C1225.78 889.459 1214.14 884.675 1202 884.688H1201.52C1189.32 884.813 1177.67 889.748 1169.08 898.419C1160.5 907.091 1155.69 918.799 1155.69 931C1155.69 950.148 1167.52 966.206 1186.58 972.935C1188.72 973.693 1191.02 973.924 1193.28 973.61C1195.54 973.295 1197.68 972.444 1199.54 971.129C1201.4 969.813 1202.92 968.07 1203.97 966.047C1205.02 964.023 1205.56 961.778 1205.56 959.5C1205.56 957.61 1206.31 955.798 1207.65 954.462C1208.99 953.126 1210.8 952.375 1212.69 952.375H1233.27C1236.5 952.391 1239.64 951.3 1242.17 949.285C1244.69 947.27 1246.46 944.45 1247.16 941.296C1247.96 937.79 1248.34 934.203 1248.31 930.608C1248.27 924.523 1247.02 918.507 1244.63 912.909C1242.24 907.311 1238.77 902.243 1234.41 897.998ZM1240.2 939.728C1239.84 941.3 1238.96 942.704 1237.7 943.708C1236.44 944.712 1234.88 945.256 1233.27 945.25H1212.69C1208.91 945.25 1205.28 946.751 1202.61 949.424C1199.94 952.096 1198.44 955.721 1198.44 959.5C1198.44 960.638 1198.16 961.759 1197.64 962.77C1197.11 963.78 1196.36 964.65 1195.43 965.307C1194.5 965.964 1193.43 966.389 1192.3 966.546C1191.17 966.704 1190.02 966.589 1188.95 966.211C1172.83 960.524 1162.81 947.031 1162.81 931C1162.81 920.677 1166.89 910.77 1174.15 903.433C1181.41 896.095 1191.27 891.919 1201.6 891.813H1202C1212.32 891.853 1222.21 895.948 1229.54 903.217C1236.88 910.485 1241.06 920.344 1241.18 930.666C1241.21 933.714 1240.88 936.755 1240.21 939.728H1240.2ZM1207.34 907.844C1207.34 908.901 1207.03 909.934 1206.44 910.813C1205.86 911.691 1205.02 912.376 1204.05 912.781C1203.07 913.185 1202 913.291 1200.96 913.085C1199.92 912.879 1198.97 912.37 1198.22 911.622C1197.48 910.875 1196.97 909.923 1196.76 908.886C1196.55 907.85 1196.66 906.775 1197.06 905.799C1197.47 904.822 1198.15 903.988 1199.03 903.401C1199.91 902.813 1200.94 902.5 1202 902.5C1203.42 902.5 1204.78 903.063 1205.78 904.065C1206.78 905.067 1207.34 906.427 1207.34 907.844ZM1187.75 918.531C1187.75 919.588 1187.44 920.621 1186.85 921.5C1186.26 922.379 1185.43 923.064 1184.45 923.468C1183.48 923.873 1182.4 923.979 1181.36 923.772C1180.33 923.566 1179.38 923.057 1178.63 922.31C1177.88 921.563 1177.37 920.61 1177.17 919.574C1176.96 918.537 1177.07 917.463 1177.47 916.486C1177.87 915.51 1178.56 914.675 1179.44 914.088C1180.32 913.501 1181.35 913.188 1182.41 913.188C1183.82 913.188 1185.18 913.751 1186.19 914.753C1187.19 915.755 1187.75 917.114 1187.75 918.531ZM1187.75 943.469C1187.75 944.526 1187.44 945.559 1186.85 946.438C1186.26 947.316 1185.43 948.001 1184.45 948.406C1183.48 948.81 1182.4 948.916 1181.36 948.71C1180.33 948.504 1179.38 947.995 1178.63 947.247C1177.88 946.5 1177.37 945.548 1177.17 944.511C1176.96 943.475 1177.07 942.4 1177.47 941.424C1177.87 940.447 1178.56 939.613 1179.44 939.026C1180.32 938.438 1181.35 938.125 1182.41 938.125C1183.82 938.125 1185.18 938.688 1186.19 939.69C1187.19 940.692 1187.75 942.052 1187.75 943.469ZM1226.94 918.531C1226.94 919.588 1226.63 920.621 1226.04 921.5C1225.45 922.379 1224.62 923.064 1223.64 923.468C1222.66 923.873 1221.59 923.979 1220.55 923.772C1219.52 923.566 1218.56 923.057 1217.82 922.31C1217.07 921.563 1216.56 920.61 1216.35 919.574C1216.15 918.537 1216.25 917.463 1216.66 916.486C1217.06 915.51 1217.75 914.675 1218.63 914.088C1219.5 913.501 1220.54 913.188 1221.59 913.188C1223.01 913.188 1224.37 913.751 1225.37 914.753C1226.38 915.755 1226.94 917.114 1226.94 918.531Z" fill="#AA5DF9"/>
<rect x="710.391" y="1095.39" width="978.986" height="201.73" rx="100.865" fill="#E7C4FD"/>
<rect x="710.391" y="1095.39" width="978.986" height="201.73" rx="100.865" stroke="#AA5DF9" stroke-width="6.78199"/>
<path d="M804.416 1222.26H792.209V1167.73H817.275C828.994 1167.73 837.377 1174.81 837.377 1186.94C837.377 1199.14 828.994 1206.06 817.275 1206.06H804.416V1222.26ZM817.763 1178.72H804.416V1195.16H817.763C823.379 1195.16 825.251 1193.45 825.251 1186.94C825.251 1180.34 823.379 1178.72 817.763 1178.72ZM854.562 1222.26H842.436V1181.32H853.748V1187.91H854.237C856.271 1183.76 859.934 1180.51 865.712 1180.51C874.257 1180.51 877.431 1186.85 877.431 1195.07V1198.82H865.305V1196.62C865.305 1192.23 863.921 1190.84 860.096 1190.84C856.353 1190.84 854.562 1192.14 854.562 1196.62V1222.26ZM901.786 1223.07C888.602 1223.07 880.789 1214.77 880.789 1201.83C880.789 1188.81 888.602 1180.51 901.786 1180.51C914.889 1180.51 922.539 1188.81 922.539 1201.83C922.539 1214.77 914.889 1223.07 901.786 1223.07ZM901.786 1212.33C908.378 1212.33 910.657 1209.72 910.657 1201.83C910.657 1193.85 908.378 1191.25 901.786 1191.25C895.112 1191.25 892.834 1193.85 892.834 1201.83C892.834 1209.72 895.112 1212.33 901.786 1212.33ZM944.865 1223.07C933.309 1223.07 927.124 1214.69 927.124 1201.83C927.124 1188.89 933.716 1180.51 944.865 1180.51C951.132 1180.51 954.876 1183.27 956.747 1186.69H957.236V1167.73H969.362V1222.26H958.05V1216.23H957.643C955.527 1220.63 950.888 1223.07 944.865 1223.07ZM939.25 1201.83C939.25 1209.23 941.203 1212.65 948.283 1212.65C954.062 1212.65 957.236 1210.62 957.236 1205.08V1198.49C957.236 1192.96 954.062 1190.92 948.283 1190.92C941.203 1190.92 939.25 1194.34 939.25 1201.83ZM991.805 1223.07C981.063 1223.07 976.587 1215.99 976.587 1207.28V1181.32H988.713V1204.84C988.713 1210.54 990.666 1212.57 996.77 1212.57C1002.63 1212.57 1005.15 1210.7 1005.15 1204.51V1181.32H1017.28V1222.26H1005.97V1215.09H1005.56C1003.28 1219.81 998.967 1223.07 991.805 1223.07ZM1043.8 1223.07C1030.29 1223.07 1023.05 1214.85 1023.05 1201.91C1023.05 1188.81 1030.78 1180.51 1044.46 1180.51C1055.36 1180.51 1063.34 1187.18 1063.34 1197.27V1198.25H1051.13V1197.6C1051.13 1192.96 1048.52 1191.41 1043.48 1191.41C1037.62 1191.41 1035.1 1194.18 1035.1 1201.83C1035.1 1209.4 1037.62 1212.16 1043.48 1212.16C1048.52 1212.16 1051.13 1210.62 1051.13 1205.98V1205.33H1063.34V1206.3C1063.34 1216.4 1055.12 1223.07 1043.8 1223.07ZM1087.43 1222.42C1076.77 1222.42 1071.64 1218.51 1071.64 1208.83V1191.41H1065.13V1181.32H1071.96L1074.24 1171.8H1083.85V1181.32H1095.4V1191.41H1083.85V1207.44C1083.85 1211.02 1085.07 1211.43 1090.36 1211.43H1095.4V1221.6C1093.45 1222.01 1090.28 1222.42 1087.43 1222.42ZM1128.92 1222.26H1116.71V1167.73H1133.88L1143.41 1193.2L1147.8 1207.2H1148.61L1152.93 1193.2L1162.04 1167.73H1179.21V1222.26H1167.01V1196.46L1167.66 1185.96H1166.76L1163.59 1196.62L1155.37 1218.51H1140.56L1132.34 1196.62L1129.08 1185.96H1128.27L1128.92 1196.46V1222.26ZM1198.12 1223.07C1190.88 1223.07 1185.26 1219.24 1185.26 1211.84C1185.26 1205.49 1189.82 1201.58 1198.28 1200.28L1212.28 1198.17V1196.86C1212.28 1192.06 1209.68 1191.17 1204.87 1191.17C1199.91 1191.17 1197.96 1192.55 1197.96 1196.7V1197.6H1186.32V1196.7C1186.32 1186.94 1193.89 1180.51 1205.44 1180.51C1217.49 1180.51 1223.84 1187.1 1223.84 1198V1222.26H1212.52V1216.72H1212.04C1209.84 1219.73 1205.69 1223.07 1198.12 1223.07ZM1196.9 1210.86C1196.9 1213.06 1198.61 1213.79 1202.19 1213.79C1207.15 1213.79 1212.28 1212.49 1212.28 1206.14L1200.56 1207.93C1198.04 1208.34 1196.9 1209.15 1196.9 1210.86ZM1243.2 1222.26H1231.08V1181.32H1242.39V1188.48H1242.88C1245.07 1183.84 1249.47 1180.51 1256.63 1180.51C1267.29 1180.51 1271.85 1187.59 1271.85 1196.29V1222.26H1259.64V1198.74C1259.64 1193.04 1257.77 1191 1251.58 1191C1245.73 1191 1243.2 1192.88 1243.2 1199.06V1222.26ZM1290.15 1223.07C1282.91 1223.07 1277.3 1219.24 1277.3 1211.84C1277.3 1205.49 1281.85 1201.58 1290.32 1200.28L1304.31 1198.17V1196.86C1304.31 1192.06 1301.71 1191.17 1296.91 1191.17C1291.94 1191.17 1289.99 1192.55 1289.99 1196.7V1197.6H1278.35V1196.7C1278.35 1186.94 1285.92 1180.51 1297.48 1180.51C1309.52 1180.51 1315.87 1187.1 1315.87 1198V1222.26H1304.56V1216.72H1304.07C1301.87 1219.73 1297.72 1223.07 1290.15 1223.07ZM1288.93 1210.86C1288.93 1213.06 1290.64 1213.79 1294.22 1213.79C1299.19 1213.79 1304.31 1212.49 1304.31 1206.14L1292.6 1207.93C1290.07 1208.34 1288.93 1209.15 1288.93 1210.86ZM1338.74 1217.94C1327.43 1217.94 1321.41 1210.7 1321.41 1199.31C1321.41 1187.91 1327.59 1180.51 1339.23 1180.51C1345.09 1180.51 1349.73 1182.78 1351.93 1187.26H1352.33V1181.32H1363.64V1217.7C1363.64 1231.05 1356.56 1236.9 1343.38 1236.9C1330.6 1236.9 1323.44 1231.29 1323.44 1220.87H1335.57C1335.57 1225.1 1336.79 1226.16 1343.79 1226.16C1350.22 1226.16 1351.52 1224.7 1351.52 1218.35V1212H1351.03C1349.24 1215.18 1344.93 1217.94 1338.74 1217.94ZM1333.53 1199.31C1333.53 1205.08 1335.57 1207.77 1342.48 1207.77C1348.34 1207.77 1351.52 1205.73 1351.52 1200.53V1198.08C1351.52 1192.88 1348.43 1190.84 1342.57 1190.84C1335.57 1190.84 1333.53 1193.53 1333.53 1199.31ZM1389.68 1223.07C1375.6 1223.07 1369.17 1214.85 1369.17 1201.91C1369.17 1188.81 1376.98 1180.51 1389.76 1180.51C1402.05 1180.51 1409.29 1187.83 1409.29 1198.49C1409.29 1200.77 1408.97 1203.13 1408.72 1204.51H1380.65C1380.89 1210.21 1383.17 1212.49 1389.84 1212.49C1394.73 1212.49 1396.84 1211.43 1396.84 1208.91V1208.42H1408.89V1209.23C1408.89 1217.94 1401.4 1223.07 1389.68 1223.07ZM1389.36 1190.52C1383.5 1190.52 1381.22 1192.79 1380.73 1197.11H1397.57C1397.82 1192.88 1395.05 1190.52 1389.36 1190.52ZM1427.27 1222.26H1415.14V1181.32H1426.46V1188.48H1426.94C1429.14 1183.84 1433.37 1180.51 1440.37 1180.51C1447.37 1180.51 1451.6 1183.68 1453.64 1188.48H1454.05C1456.32 1184.01 1460.39 1180.51 1467.96 1180.51C1478.54 1180.51 1482.86 1187.59 1482.86 1196.29V1222.26H1470.65V1198.74C1470.65 1193.04 1468.94 1191 1463 1191C1457.46 1191 1455.1 1192.79 1455.1 1198.74V1222.26H1442.9V1198.74C1442.9 1193.04 1441.11 1191 1435.25 1191C1429.71 1191 1427.27 1192.79 1427.27 1198.57V1222.26ZM1508.9 1223.07C1494.82 1223.07 1488.39 1214.85 1488.39 1201.91C1488.39 1188.81 1496.2 1180.51 1508.98 1180.51C1521.27 1180.51 1528.51 1187.83 1528.51 1198.49C1528.51 1200.77 1528.18 1203.13 1527.94 1204.51H1499.86C1500.11 1210.21 1502.38 1212.49 1509.06 1212.49C1513.94 1212.49 1516.06 1211.43 1516.06 1208.91V1208.42H1528.1V1209.23C1528.1 1217.94 1520.61 1223.07 1508.9 1223.07ZM1508.57 1190.52C1502.71 1190.52 1500.43 1192.79 1499.94 1197.11H1516.79C1517.03 1192.88 1514.27 1190.52 1508.57 1190.52ZM1546.48 1222.26H1534.36V1181.32H1545.67V1188.48H1546.16C1548.36 1183.84 1552.75 1180.51 1559.91 1180.51C1570.57 1180.51 1575.13 1187.59 1575.13 1196.29V1222.26H1562.92V1198.74C1562.92 1193.04 1561.05 1191 1554.87 1191C1549.01 1191 1546.48 1192.88 1546.48 1199.06V1222.26ZM1600.85 1222.42C1590.18 1222.42 1585.06 1218.51 1585.06 1208.83V1191.41H1578.55V1181.32H1585.38L1587.66 1171.8H1597.26V1181.32H1608.82V1191.41H1597.26V1207.44C1597.26 1211.02 1598.49 1211.43 1603.78 1211.43H1608.82V1221.6C1606.87 1222.01 1603.69 1222.42 1600.85 1222.42Z" fill="#AA5DF9"/>
<rect x="1100.5" y="831" width="200" height="200" rx="100" fill="#E7C4FD"/>
<g clip-path="url(#clip0_16_1903)">
<path d="M1206.62 944.217C1212.21 940.739 1216.51 935.536 1218.87 929.396C1221.24 923.257 1221.54 916.514 1219.73 910.188C1217.92 903.862 1214.1 898.298 1208.85 894.336C1203.6 890.375 1197.2 888.232 1190.62 888.232C1184.04 888.232 1177.64 890.375 1172.38 894.336C1167.13 898.298 1163.31 903.862 1161.5 910.188C1159.69 916.514 1159.99 923.257 1162.36 929.396C1164.72 935.536 1169.02 940.739 1174.61 944.217C1165.41 947.227 1157.14 952.851 1150.48 960.769C1150.17 961.126 1149.94 961.541 1149.79 961.99C1149.64 962.439 1149.58 962.914 1149.61 963.386C1149.65 963.858 1149.78 964.318 1150 964.74C1150.21 965.161 1150.51 965.535 1150.87 965.84C1151.23 966.145 1151.65 966.375 1152.11 966.515C1152.56 966.656 1153.03 966.706 1153.51 966.661C1153.98 966.615 1154.43 966.477 1154.85 966.253C1155.27 966.029 1155.64 965.724 1155.93 965.356C1164.88 954.686 1177.19 948.812 1190.59 948.812C1203.99 948.812 1216.31 954.686 1225.27 965.356C1225.88 966.08 1226.75 966.533 1227.69 966.614C1228.63 966.696 1229.57 966.4 1230.29 965.792C1231.02 965.184 1231.47 964.313 1231.55 963.371C1231.63 962.429 1231.34 961.493 1230.73 960.769C1224.07 952.851 1215.8 947.227 1206.62 944.217ZM1167.44 918.531C1167.44 913.951 1168.8 909.474 1171.34 905.666C1173.88 901.858 1177.5 898.89 1181.73 897.138C1185.96 895.385 1190.62 894.926 1195.11 895.82C1199.6 896.713 1203.73 898.919 1206.97 902.157C1210.21 905.396 1212.41 909.522 1213.3 914.014C1214.2 918.506 1213.74 923.161 1211.99 927.393C1210.23 931.624 1207.27 935.241 1203.46 937.785C1199.65 940.329 1195.17 941.687 1190.59 941.687C1184.45 941.68 1178.57 939.238 1174.23 934.897C1169.89 930.556 1167.44 924.67 1167.44 918.531ZM1254.83 937.711L1252.75 936.513C1253 935.224 1253 933.901 1252.75 932.612L1254.83 931.414C1255.24 931.18 1255.59 930.869 1255.88 930.498C1256.16 930.126 1256.37 929.703 1256.49 929.251C1256.61 928.799 1256.64 928.327 1256.58 927.863C1256.52 927.399 1256.37 926.952 1256.13 926.547C1255.9 926.142 1255.59 925.786 1255.22 925.501C1254.85 925.217 1254.42 925.008 1253.97 924.886C1253.52 924.765 1253.05 924.734 1252.58 924.795C1252.12 924.856 1251.67 925.008 1251.27 925.242L1249.19 926.444C1248.19 925.591 1247.05 924.928 1245.81 924.49V922.094C1245.81 921.149 1245.44 920.243 1244.77 919.575C1244.1 918.907 1243.19 918.531 1242.25 918.531C1241.3 918.531 1240.4 918.907 1239.73 919.575C1239.06 920.243 1238.69 921.149 1238.69 922.094V924.49C1237.45 924.928 1236.31 925.591 1235.31 926.444L1233.23 925.242C1232.83 925.008 1232.38 924.856 1231.92 924.795C1231.45 924.734 1230.98 924.765 1230.53 924.886C1230.08 925.008 1229.65 925.217 1229.28 925.501C1228.91 925.786 1228.6 926.142 1228.36 926.547C1228.13 926.952 1227.98 927.399 1227.92 927.863C1227.86 928.327 1227.89 928.799 1228.01 929.251C1228.13 929.703 1228.34 930.126 1228.62 930.498C1228.91 930.869 1229.26 931.18 1229.67 931.414L1231.74 932.612C1231.5 933.901 1231.5 935.224 1231.74 936.513L1229.67 937.711C1229.26 937.945 1228.91 938.256 1228.62 938.627C1228.34 938.999 1228.13 939.422 1228.01 939.874C1227.89 940.326 1227.86 940.798 1227.92 941.262C1227.98 941.725 1228.13 942.173 1228.36 942.578C1228.6 942.983 1228.91 943.339 1229.28 943.623C1229.65 943.908 1230.08 944.117 1230.53 944.239C1230.98 944.36 1231.45 944.391 1231.92 944.33C1232.38 944.269 1232.83 944.117 1233.23 943.883L1235.31 942.681C1236.31 943.534 1237.45 944.197 1238.69 944.635V947.031C1238.69 947.976 1239.06 948.882 1239.73 949.55C1240.4 950.218 1241.3 950.594 1242.25 950.594C1243.19 950.594 1244.1 950.218 1244.77 949.55C1245.44 948.882 1245.81 947.976 1245.81 947.031V944.635C1247.05 944.197 1248.19 943.534 1249.19 942.681L1251.27 943.883C1251.81 944.197 1252.42 944.361 1253.05 944.359C1253.83 944.36 1254.6 944.101 1255.22 943.624C1255.84 943.146 1256.29 942.477 1256.49 941.719C1256.69 940.961 1256.64 940.157 1256.34 939.433C1256.04 938.708 1255.51 938.103 1254.83 937.711ZM1238.69 934.562C1238.69 933.858 1238.9 933.169 1239.29 932.583C1239.68 931.997 1240.24 931.541 1240.89 931.271C1241.54 931.002 1242.25 930.931 1242.94 931.068C1243.64 931.206 1244.27 931.545 1244.77 932.043C1245.27 932.542 1245.61 933.176 1245.74 933.867C1245.88 934.559 1245.81 935.275 1245.54 935.926C1245.27 936.577 1244.81 937.133 1244.23 937.525C1243.64 937.916 1242.95 938.125 1242.25 938.125C1241.3 938.125 1240.4 937.75 1239.73 937.082C1239.06 936.413 1238.69 935.507 1238.69 934.562Z" fill="#AA5DF9"/>
</g>
<defs>
<clipPath id="clip0_16_1903">
<rect width="114" height="114" fill="white" transform="translate(1142.5 874)"/>
</clipPath>
</defs>
</svg>
